<svg width="1918" height="991" viewBox="0 0 1918 991" fill="none" xmlns="http://www.w3.org/2000/svg">
<path d="M1873.73 0C1861.99 0 44.2685 0 44.2685 0C32.5 3.61204e-05 0 0 0 0C0 0 0 36.0044 0 49L0 808C0 820.996 4.66399 833.459 12.9659 842.648C21.2679 851.838 32.5278 857 44.2685 857H404.583C439.338 857 472.669 872.282 497.244 899.484L540.918 947.825C553.087 961.294 567.533 971.979 583.433 979.268C599.332 986.557 616.372 990.309 633.581 990.309H1283.52C1318.27 990.309 1351.6 975.027 1376.18 947.825L1419.85 899.484C1432.02 886.015 1446.47 875.33 1462.37 868.041C1478.26 860.751 1495.31 857 1512.52 857H1873.73C1885.47 857 1896.73 851.838 1905.03 842.648C1913.34 833.459 1918 820.996 1918 808V49V0C1918 0 1885.47 0 1873.73 0Z" fill="url(#paint0_linear_37_702)"/>
<defs>
<linearGradient id="paint0_linear_37_702" x1="855.428" y1="592.205" x2="854.405" y2="-79.2289" gradientUnits="userSpaceOnUse">
<stop stop-color="#141212"/>
<stop offset="1" stop-color="#881D15"/>
</linearGradient>
</defs>
</svg>
