<svg width="645" height="422" viewBox="0 0 645 422" fill="none" xmlns="http://www.w3.org/2000/svg">
<path d="M641 49.6457V371.385C641 377.904 639.716 384.359 637.221 390.382C634.726 396.405 631.07 401.877 626.46 406.487C621.85 411.097 616.377 414.753 610.354 417.248C604.331 419.743 597.876 421.027 591.357 421.027H53.6431C47.1239 421.027 40.6685 419.743 34.6455 417.248C28.6225 414.753 23.1499 411.097 18.5401 406.487C13.9303 401.877 10.2736 396.405 7.77883 390.382C5.28402 384.359 4 377.904 4 371.385V133.311C4 129.116 4.82609 124.963 6.43128 121.087C8.03647 117.212 10.3893 113.691 13.3553 110.725C16.3213 107.759 19.8423 105.406 23.7176 103.801C27.5929 102.196 31.7464 101.369 35.941 101.369H64.0663C74.3877 101.369 84.2864 97.2696 91.5848 89.9714C98.8832 82.6731 102.984 72.7743 102.984 62.4529V31.9408C102.984 23.4695 106.349 15.3454 112.339 9.35527C118.329 3.36516 126.453 0 134.925 0H591.357C597.876 -9.24477e-09 604.332 1.28386 610.355 3.77883C616.378 6.2738 621.851 9.9308 626.461 14.5409C631.071 19.151 634.727 24.624 637.222 30.6473C639.717 36.6706 641 43.1263 641 49.6457Z" fill="url(#paint0_linear_59_2)"/>
<mask id="mask0_59_2" style="mask-type:luminance" maskUnits="userSpaceOnUse" x="4" y="0" width="637" height="422">
<path d="M641 49.6457V371.385C641 377.904 639.716 384.359 637.221 390.382C634.726 396.405 631.07 401.877 626.46 406.487C621.85 411.097 616.377 414.753 610.354 417.248C604.331 419.743 597.876 421.027 591.357 421.027H53.6431C47.1239 421.027 40.6685 419.743 34.6455 417.248C28.6225 414.753 23.1499 411.097 18.5401 406.487C13.9303 401.877 10.2736 396.405 7.77883 390.382C5.28402 384.359 4 377.904 4 371.385V133.311C4 129.116 4.82609 124.963 6.43128 121.087C8.03647 117.212 10.3893 113.691 13.3553 110.725C16.3213 107.759 19.8423 105.406 23.7176 103.801C27.5929 102.196 31.7464 101.369 35.941 101.369H64.0663C74.3877 101.369 84.2864 97.2696 91.5848 89.9714C98.8832 82.6731 102.984 72.7743 102.984 62.4529V31.9408C102.984 23.4695 106.349 15.3454 112.339 9.35527C118.329 3.36516 126.453 0 134.925 0H591.357C597.876 -9.24477e-09 604.332 1.28386 610.355 3.77883C616.378 6.2738 621.851 9.9308 626.461 14.5409C631.071 19.151 634.727 24.624 637.222 30.6473C639.717 36.6706 641 43.1263 641 49.6457Z" fill="white"/>
</mask>
<g mask="url(#mask0_59_2)">
<g filter="url(#filter0_f_59_2)">
<path opacity="0.32" d="M268.588 -0.786281C31.985 -147.572 -131.908 -310.896 -97.4749 -365.585C-63.0418 -420.274 156.672 -345.608 393.275 -198.823C629.879 -52.0382 793.77 111.289 759.34 165.974C724.911 220.658 505.193 146 268.588 -0.786281Z" fill="#EA4719"/>
<path opacity="0.49" d="M362.281 -39.1427C186.377 -148.271 83.4662 -299.772 132.424 -377.529C181.381 -455.286 363.668 -429.856 539.572 -320.728C715.476 -211.6 818.387 -60.0987 769.429 17.6589C720.471 95.4166 538.185 69.9854 362.281 -39.1427Z" fill="#FFB038"/>
</g>
</g>
<defs>
<filter id="filter0_f_59_2" x="-302.044" y="-622.577" width="1283.66" height="1006.47" filterUnits="userSpaceOnUse" color-interpolation-filters="sRGB">
<feFlood flood-opacity="0" result="BackgroundImageFix"/>
<feBlend mode="normal" in="SourceGraphic" in2="BackgroundImageFix" result="shape"/>
<feGaussianBlur stdDeviation="100" result="effect1_foregroundBlur_59_2"/>
</filter>
<linearGradient id="paint0_linear_59_2" x1="351.802" y1="315.349" x2="378.149" y2="-36.1952" gradientUnits="userSpaceOnUse">
<stop stop-color="#141212"/>
<stop offset="1" stop-color="#881D15"/>
</linearGradient>
</defs>
</svg>
