<svg width="2729" height="1321" viewBox="0 0 2729 1321" fill="none" xmlns="http://www.w3.org/2000/svg">
<g filter="url(#filter0_f_37_854)">
<path opacity="0.32" d="M925.585 735.475C510.305 801.249 185.983 932.404 201.19 1028.42C216.397 1124.43 565.375 1148.95 980.655 1083.17C1395.93 1017.4 1720.26 886.244 1705.05 790.23C1689.84 694.216 1340.86 669.701 925.585 735.475Z" fill="#EA4719"/>
<path opacity="0.49" d="M970.834 453.068C662.092 501.968 429.336 652.282 450.959 788.803C472.582 925.324 740.395 996.356 1049.14 947.456C1357.88 898.556 1590.64 748.242 1569.01 611.721C1547.39 475.2 1279.58 404.168 970.834 453.068Z" fill="#FFB038"/>
</g>
<g opacity="0.31">
<path d="M500.965 0L422.406 78.5596L453.79 109.944L501.025 62.7091L548.259 109.944L579.584 78.619L500.965 0Z" fill="url(#paint0_linear_37_854)" fill-opacity="0.3"/>
<path d="M548.288 110.051L501.054 157.285L453.819 110.051L422.494 141.375L501.113 219.994L579.673 141.435L548.288 110.051Z" fill="url(#paint1_linear_37_854)" fill-opacity="0.3"/>
<path d="M627.979 127.014L549.42 205.574L580.804 236.958L628.039 189.723L675.274 236.958L706.598 205.633L627.979 127.014Z" fill="url(#paint2_linear_37_854)" fill-opacity="0.3"/>
<path d="M675.303 237.065L628.068 284.299L580.833 237.065L549.508 268.389L628.127 347.008L706.687 268.449L675.303 237.065Z" fill="url(#paint3_linear_37_854)" fill-opacity="0.3"/>
<path d="M754.994 254.029L676.435 332.589L707.819 363.973L755.054 316.738L802.288 363.973L833.613 332.648L754.994 254.029Z" fill="url(#paint4_linear_37_854)" fill-opacity="0.3"/>
<path d="M802.317 364.08L755.083 411.314L707.848 364.08L676.523 395.404L755.142 474.023L833.701 395.464L802.317 364.08Z" fill="url(#paint5_linear_37_854)" fill-opacity="0.3"/>
<path d="M882.008 381.043L803.449 459.603L834.833 490.987L882.068 443.752L929.302 490.987L960.627 459.662L882.008 381.043Z" fill="url(#paint6_linear_37_854)" fill-opacity="0.3"/>
<path d="M929.331 491.094L882.097 538.328L834.862 491.094L803.537 522.418L882.156 601.037L960.716 522.478L929.331 491.094Z" fill="url(#paint7_linear_37_854)" fill-opacity="0.3"/>
<path d="M1009.02 508.057L930.463 586.617L961.847 618.001L1009.08 570.766L1056.32 618.001L1087.64 586.676L1009.02 508.057Z" fill="url(#paint8_linear_37_854)" fill-opacity="0.3"/>
<path d="M1056.35 618.108L1009.11 665.342L961.876 618.108L930.551 649.432L1009.17 728.051L1087.73 649.492L1056.35 618.108Z" fill="url(#paint9_linear_37_854)" fill-opacity="0.3"/>
<path d="M1136.04 635.071L1057.48 713.631L1088.86 745.015L1136.1 697.78L1183.33 745.015L1214.66 713.69L1136.04 635.071Z" fill="url(#paint10_linear_37_854)" fill-opacity="0.3"/>
<path d="M1183.36 745.122L1136.12 792.356L1088.89 745.122L1057.56 776.446L1136.18 855.065L1214.74 776.506L1183.36 745.122Z" fill="url(#paint11_linear_37_854)" fill-opacity="0.3"/>
<path d="M373.951 127.014L295.392 205.574L326.776 236.958L374.011 189.723L421.245 236.958L452.57 205.633L373.951 127.014Z" fill="url(#paint12_linear_37_854)" fill-opacity="0.3"/>
<path d="M421.274 237.065L374.04 284.299L326.805 237.065L295.48 268.389L374.099 347.008L452.659 268.449L421.274 237.065Z" fill="url(#paint13_linear_37_854)" fill-opacity="0.3"/>
<path d="M500.965 254.028L422.406 332.588L453.79 363.972L501.025 316.737L548.259 363.972L579.584 332.647L500.965 254.028Z" fill="url(#paint14_linear_37_854)" fill-opacity="0.3"/>
<path d="M548.288 364.079L501.054 411.313L453.819 364.079L422.494 395.403L501.113 474.022L579.673 395.463L548.288 364.079Z" fill="url(#paint15_linear_37_854)" fill-opacity="0.3"/>
<path d="M627.98 381.043L549.421 459.603L580.805 490.987L628.04 443.752L675.275 490.987L706.599 459.662L627.98 381.043Z" fill="url(#paint16_linear_37_854)" fill-opacity="0.3"/>
<path d="M675.304 491.094L628.069 538.328L580.834 491.094L549.509 522.418L628.128 601.037L706.688 522.478L675.304 491.094Z" fill="url(#paint17_linear_37_854)" fill-opacity="0.3"/>
<path d="M754.994 508.057L676.435 586.617L707.819 618.001L755.054 570.766L802.288 618.001L833.613 586.676L754.994 508.057Z" fill="url(#paint18_linear_37_854)" fill-opacity="0.3"/>
<path d="M802.317 618.108L755.083 665.342L707.848 618.108L676.523 649.432L755.142 728.051L833.701 649.492L802.317 618.108Z" fill="url(#paint19_linear_37_854)" fill-opacity="0.3"/>
<path d="M882.008 635.071L803.449 713.631L834.833 745.015L882.068 697.78L929.302 745.015L960.627 713.69L882.008 635.071Z" fill="url(#paint20_linear_37_854)" fill-opacity="0.3"/>
<path d="M929.331 745.122L882.097 792.356L834.862 745.122L803.537 776.447L882.156 855.065L960.716 776.506L929.331 745.122Z" fill="url(#paint21_linear_37_854)" fill-opacity="0.3"/>
<path d="M1009.02 762.085L930.463 840.645L961.847 872.029L1009.08 824.794L1056.32 872.029L1087.64 840.704L1009.02 762.085Z" fill="url(#paint22_linear_37_854)" fill-opacity="0.3"/>
<path d="M1056.35 872.136L1009.11 919.37L961.876 872.136L930.551 903.46L1009.17 982.079L1087.73 903.52L1056.35 872.136Z" fill="url(#paint23_linear_37_854)" fill-opacity="0.3"/>
<path d="M246.937 254.028L168.377 332.588L199.762 363.972L246.996 316.737L294.231 363.972L325.556 332.647L246.937 254.028Z" fill="url(#paint24_linear_37_854)" fill-opacity="0.3"/>
<path d="M294.26 364.079L247.025 411.313L199.791 364.079L168.466 395.403L247.085 474.022L325.644 395.463L294.26 364.079Z" fill="url(#paint25_linear_37_854)" fill-opacity="0.3"/>
<path d="M373.951 381.042L295.392 459.602L326.776 490.986L374.011 443.751L421.245 490.986L452.57 459.661L373.951 381.042Z" fill="url(#paint26_linear_37_854)" fill-opacity="0.3"/>
<path d="M421.274 491.093L374.04 538.327L326.805 491.093L295.48 522.418L374.099 601.037L452.659 522.477L421.274 491.093Z" fill="url(#paint27_linear_37_854)" fill-opacity="0.3"/>
<path d="M500.966 508.057L422.407 586.617L453.791 618.001L501.026 570.766L548.26 618.001L579.585 586.676L500.966 508.057Z" fill="url(#paint28_linear_37_854)" fill-opacity="0.3"/>
<path d="M548.289 618.108L501.055 665.342L453.82 618.108L422.495 649.432L501.114 728.051L579.674 649.492L548.289 618.108Z" fill="url(#paint29_linear_37_854)" fill-opacity="0.3"/>
<path d="M627.98 635.071L549.421 713.631L580.805 745.015L628.04 697.78L675.275 745.015L706.599 713.69L627.98 635.071Z" fill="url(#paint30_linear_37_854)" fill-opacity="0.3"/>
<path d="M675.304 745.122L628.069 792.356L580.834 745.122L549.509 776.446L628.128 855.065L706.688 776.506L675.304 745.122Z" fill="url(#paint31_linear_37_854)" fill-opacity="0.3"/>
<path d="M754.994 762.085L676.435 840.645L707.819 872.029L755.054 824.794L802.288 872.029L833.613 840.704L754.994 762.085Z" fill="url(#paint32_linear_37_854)" fill-opacity="0.3"/>
<path d="M802.317 872.136L755.083 919.37L707.848 872.136L676.523 903.461L755.142 982.08L833.701 903.52L802.317 872.136Z" fill="url(#paint33_linear_37_854)" fill-opacity="0.3"/>
<path d="M882.008 889.099L803.449 967.659L834.833 999.043L882.068 951.808L929.302 999.043L960.627 967.718L882.008 889.099Z" fill="url(#paint34_linear_37_854)" fill-opacity="0.3"/>
<path d="M929.331 999.15L882.097 1046.38L834.862 999.15L803.537 1030.47L882.156 1109.09L960.716 1030.53L929.331 999.15Z" fill="url(#paint35_linear_37_854)" fill-opacity="0.3"/>
<path d="M119.923 381.042L41.3638 459.602L72.748 490.986L119.983 443.751L167.217 490.986L198.542 459.661L119.923 381.042Z" fill="url(#paint36_linear_37_854)" fill-opacity="0.3"/>
<path d="M167.246 491.093L120.012 538.327L72.777 491.093L41.4522 522.418L120.071 601.037L198.631 522.477L167.246 491.093Z" fill="url(#paint37_linear_37_854)" fill-opacity="0.3"/>
<path d="M246.937 508.056L168.377 586.616L199.762 618L246.996 570.765L294.231 618L325.556 586.675L246.937 508.056Z" fill="url(#paint38_linear_37_854)" fill-opacity="0.3"/>
<path d="M294.26 618.107L247.025 665.342L199.791 618.107L168.466 649.432L247.085 728.051L325.644 649.491L294.26 618.107Z" fill="url(#paint39_linear_37_854)" fill-opacity="0.3"/>
<path d="M373.952 635.071L295.393 713.631L326.777 745.015L374.012 697.78L421.246 745.015L452.571 713.69L373.952 635.071Z" fill="url(#paint40_linear_37_854)" fill-opacity="0.3"/>
<path d="M421.275 745.122L374.041 792.356L326.806 745.122L295.481 776.447L374.1 855.065L452.659 776.506L421.275 745.122Z" fill="url(#paint41_linear_37_854)" fill-opacity="0.3"/>
<path d="M500.966 762.085L422.407 840.645L453.791 872.029L501.026 824.794L548.26 872.029L579.585 840.704L500.966 762.085Z" fill="url(#paint42_linear_37_854)" fill-opacity="0.3"/>
<path d="M548.289 872.136L501.055 919.37L453.82 872.136L422.495 903.461L501.114 982.08L579.674 903.52L548.289 872.136Z" fill="url(#paint43_linear_37_854)" fill-opacity="0.3"/>
<path d="M627.98 889.099L549.421 967.659L580.805 999.043L628.04 951.808L675.275 999.043L706.599 967.718L627.98 889.099Z" fill="url(#paint44_linear_37_854)" fill-opacity="0.3"/>
<path d="M675.304 999.15L628.069 1046.38L580.834 999.15L549.509 1030.47L628.128 1109.09L706.688 1030.53L675.304 999.15Z" fill="url(#paint45_linear_37_854)" fill-opacity="0.3"/>
<path d="M754.994 1016.11L676.435 1094.67L707.819 1126.06L755.054 1078.82L802.288 1126.06L833.613 1094.73L754.994 1016.11Z" fill="url(#paint46_linear_37_854)" fill-opacity="0.3"/>
<path d="M802.317 1126.16L755.083 1173.4L707.848 1126.16L676.523 1157.49L755.142 1236.11L833.701 1157.55L802.317 1126.16Z" fill="url(#paint47_linear_37_854)" fill-opacity="0.3"/>
</g>
<g opacity="0.31">
<path d="M1983.55 0L1904.99 78.5596L1936.38 109.944L1983.61 62.7091L2030.85 109.944L2062.17 78.619L1983.55 0Z" fill="url(#paint48_linear_37_854)" fill-opacity="0.3"/>
<path d="M2030.88 110.051L1983.64 157.285L1936.41 110.051L1905.08 141.375L1983.7 219.994L2062.26 141.435L2030.88 110.051Z" fill="url(#paint49_linear_37_854)" fill-opacity="0.3"/>
<path d="M2110.57 127.014L2032.01 205.574L2063.39 236.958L2110.63 189.723L2157.86 236.958L2189.19 205.633L2110.57 127.014Z" fill="url(#paint50_linear_37_854)" fill-opacity="0.3"/>
<path d="M2157.89 237.065L2110.66 284.299L2063.42 237.065L2032.1 268.389L2110.72 347.008L2189.28 268.449L2157.89 237.065Z" fill="url(#paint51_linear_37_854)" fill-opacity="0.3"/>
<path d="M2237.58 254.029L2159.02 332.589L2190.41 363.973L2237.64 316.738L2284.88 363.973L2316.2 332.648L2237.58 254.029Z" fill="url(#paint52_linear_37_854)" fill-opacity="0.3"/>
<path d="M2284.91 364.08L2237.67 411.314L2190.44 364.08L2159.11 395.404L2237.73 474.023L2316.29 395.464L2284.91 364.08Z" fill="url(#paint53_linear_37_854)" fill-opacity="0.3"/>
<path d="M2364.6 381.043L2286.04 459.603L2317.42 490.987L2364.66 443.752L2411.89 490.987L2443.22 459.662L2364.6 381.043Z" fill="url(#paint54_linear_37_854)" fill-opacity="0.3"/>
<path d="M2411.92 491.094L2364.69 538.328L2317.45 491.094L2286.13 522.418L2364.74 601.037L2443.3 522.478L2411.92 491.094Z" fill="url(#paint55_linear_37_854)" fill-opacity="0.3"/>
<path d="M2491.61 508.057L2413.05 586.617L2444.44 618.001L2491.67 570.766L2538.9 618.001L2570.23 586.676L2491.61 508.057Z" fill="url(#paint56_linear_37_854)" fill-opacity="0.3"/>
<path d="M2538.93 618.108L2491.7 665.342L2444.46 618.108L2413.14 649.432L2491.76 728.051L2570.32 649.492L2538.93 618.108Z" fill="url(#paint57_linear_37_854)" fill-opacity="0.3"/>
<path d="M2618.62 635.071L2540.07 713.631L2571.45 745.015L2618.68 697.78L2665.92 745.015L2697.24 713.69L2618.62 635.071Z" fill="url(#paint58_linear_37_854)" fill-opacity="0.3"/>
<path d="M2665.95 745.122L2618.71 792.356L2571.48 745.122L2540.15 776.446L2618.77 855.065L2697.33 776.506L2665.95 745.122Z" fill="url(#paint59_linear_37_854)" fill-opacity="0.3"/>
<path d="M1856.54 127.014L1777.98 205.574L1809.36 236.958L1856.6 189.723L1903.83 236.958L1935.16 205.633L1856.54 127.014Z" fill="url(#paint60_linear_37_854)" fill-opacity="0.3"/>
<path d="M1903.86 237.065L1856.63 284.299L1809.39 237.065L1778.07 268.389L1856.69 347.008L1935.25 268.449L1903.86 237.065Z" fill="url(#paint61_linear_37_854)" fill-opacity="0.3"/>
<path d="M1983.55 254.028L1904.99 332.588L1936.38 363.972L1983.61 316.737L2030.85 363.972L2062.17 332.647L1983.55 254.028Z" fill="url(#paint62_linear_37_854)" fill-opacity="0.3"/>
<path d="M2030.88 364.079L1983.64 411.313L1936.41 364.079L1905.08 395.403L1983.7 474.022L2062.26 395.463L2030.88 364.079Z" fill="url(#paint63_linear_37_854)" fill-opacity="0.3"/>
<path d="M2110.57 381.043L2032.01 459.603L2063.39 490.987L2110.63 443.752L2157.86 490.987L2189.19 459.662L2110.57 381.043Z" fill="url(#paint64_linear_37_854)" fill-opacity="0.3"/>
<path d="M2157.89 491.094L2110.66 538.328L2063.42 491.094L2032.1 522.418L2110.72 601.037L2189.28 522.478L2157.89 491.094Z" fill="url(#paint65_linear_37_854)" fill-opacity="0.3"/>
<path d="M2237.58 508.057L2159.02 586.617L2190.41 618.001L2237.64 570.766L2284.88 618.001L2316.2 586.676L2237.58 508.057Z" fill="url(#paint66_linear_37_854)" fill-opacity="0.3"/>
<path d="M2284.91 618.108L2237.67 665.342L2190.44 618.108L2159.11 649.432L2237.73 728.051L2316.29 649.492L2284.91 618.108Z" fill="url(#paint67_linear_37_854)" fill-opacity="0.3"/>
<path d="M2364.6 635.071L2286.04 713.631L2317.42 745.015L2364.66 697.78L2411.89 745.015L2443.22 713.69L2364.6 635.071Z" fill="url(#paint68_linear_37_854)" fill-opacity="0.3"/>
<path d="M2411.92 745.122L2364.69 792.356L2317.45 745.122L2286.13 776.447L2364.74 855.065L2443.3 776.506L2411.92 745.122Z" fill="url(#paint69_linear_37_854)" fill-opacity="0.3"/>
<path d="M2491.61 762.085L2413.05 840.645L2444.44 872.029L2491.67 824.794L2538.9 872.029L2570.23 840.704L2491.61 762.085Z" fill="url(#paint70_linear_37_854)" fill-opacity="0.3"/>
<path d="M2538.93 872.136L2491.7 919.37L2444.46 872.136L2413.14 903.46L2491.76 982.079L2570.32 903.52L2538.93 872.136Z" fill="url(#paint71_linear_37_854)" fill-opacity="0.3"/>
<path d="M1729.53 254.028L1650.97 332.588L1682.35 363.972L1729.58 316.737L1776.82 363.972L1808.14 332.647L1729.53 254.028Z" fill="url(#paint72_linear_37_854)" fill-opacity="0.3"/>
<path d="M1776.85 364.079L1729.61 411.313L1682.38 364.079L1651.05 395.403L1729.67 474.022L1808.23 395.463L1776.85 364.079Z" fill="url(#paint73_linear_37_854)" fill-opacity="0.3"/>
<path d="M1856.54 381.042L1777.98 459.602L1809.36 490.986L1856.6 443.751L1903.83 490.986L1935.16 459.661L1856.54 381.042Z" fill="url(#paint74_linear_37_854)" fill-opacity="0.3"/>
<path d="M1903.86 491.093L1856.63 538.327L1809.39 491.093L1778.07 522.418L1856.69 601.037L1935.25 522.477L1903.86 491.093Z" fill="url(#paint75_linear_37_854)" fill-opacity="0.3"/>
<path d="M1983.55 508.057L1905 586.617L1936.38 618.001L1983.61 570.766L2030.85 618.001L2062.17 586.676L1983.55 508.057Z" fill="url(#paint76_linear_37_854)" fill-opacity="0.3"/>
<path d="M2030.88 618.108L1983.64 665.342L1936.41 618.108L1905.08 649.432L1983.7 728.051L2062.26 649.492L2030.88 618.108Z" fill="url(#paint77_linear_37_854)" fill-opacity="0.3"/>
<path d="M2110.57 635.071L2032.01 713.631L2063.39 745.015L2110.63 697.78L2157.86 745.015L2189.19 713.69L2110.57 635.071Z" fill="url(#paint78_linear_37_854)" fill-opacity="0.3"/>
<path d="M2157.89 745.122L2110.66 792.356L2063.42 745.122L2032.1 776.446L2110.72 855.065L2189.28 776.506L2157.89 745.122Z" fill="url(#paint79_linear_37_854)" fill-opacity="0.3"/>
<path d="M2237.58 762.085L2159.02 840.645L2190.41 872.029L2237.64 824.794L2284.88 872.029L2316.2 840.704L2237.58 762.085Z" fill="url(#paint80_linear_37_854)" fill-opacity="0.3"/>
<path d="M2284.91 872.136L2237.67 919.37L2190.44 872.136L2159.11 903.461L2237.73 982.08L2316.29 903.52L2284.91 872.136Z" fill="url(#paint81_linear_37_854)" fill-opacity="0.3"/>
<path d="M2364.6 889.099L2286.04 967.659L2317.42 999.043L2364.66 951.808L2411.89 999.043L2443.22 967.718L2364.6 889.099Z" fill="url(#paint82_linear_37_854)" fill-opacity="0.3"/>
<path d="M2411.92 999.15L2364.69 1046.38L2317.45 999.15L2286.13 1030.47L2364.74 1109.09L2443.3 1030.53L2411.92 999.15Z" fill="url(#paint83_linear_37_854)" fill-opacity="0.3"/>
<path d="M1602.51 381.042L1523.95 459.602L1555.34 490.986L1602.57 443.751L1649.81 490.986L1681.13 459.661L1602.51 381.042Z" fill="url(#paint84_linear_37_854)" fill-opacity="0.3"/>
<path d="M1649.84 491.093L1602.6 538.327L1555.37 491.093L1524.04 522.418L1602.66 601.037L1681.22 522.477L1649.84 491.093Z" fill="url(#paint85_linear_37_854)" fill-opacity="0.3"/>
<path d="M1729.53 508.056L1650.97 586.616L1682.35 618L1729.58 570.765L1776.82 618L1808.14 586.675L1729.53 508.056Z" fill="url(#paint86_linear_37_854)" fill-opacity="0.3"/>
<path d="M1776.85 618.107L1729.61 665.342L1682.38 618.107L1651.05 649.432L1729.67 728.051L1808.23 649.491L1776.85 618.107Z" fill="url(#paint87_linear_37_854)" fill-opacity="0.3"/>
<path d="M1856.54 635.071L1777.98 713.631L1809.36 745.015L1856.6 697.78L1903.83 745.015L1935.16 713.69L1856.54 635.071Z" fill="url(#paint88_linear_37_854)" fill-opacity="0.3"/>
<path d="M1903.86 745.122L1856.63 792.356L1809.39 745.122L1778.07 776.447L1856.69 855.065L1935.25 776.506L1903.86 745.122Z" fill="url(#paint89_linear_37_854)" fill-opacity="0.3"/>
<path d="M1983.55 762.085L1905 840.645L1936.38 872.029L1983.61 824.794L2030.85 872.029L2062.17 840.704L1983.55 762.085Z" fill="url(#paint90_linear_37_854)" fill-opacity="0.3"/>
<path d="M2030.88 872.136L1983.64 919.37L1936.41 872.136L1905.08 903.461L1983.7 982.08L2062.26 903.52L2030.88 872.136Z" fill="url(#paint91_linear_37_854)" fill-opacity="0.3"/>
<path d="M2110.57 889.099L2032.01 967.659L2063.39 999.043L2110.63 951.808L2157.86 999.043L2189.19 967.718L2110.57 889.099Z" fill="url(#paint92_linear_37_854)" fill-opacity="0.3"/>
<path d="M2157.89 999.15L2110.66 1046.38L2063.42 999.15L2032.1 1030.47L2110.72 1109.09L2189.28 1030.53L2157.89 999.15Z" fill="url(#paint93_linear_37_854)" fill-opacity="0.3"/>
<path d="M2237.58 1016.11L2159.02 1094.67L2190.41 1126.06L2237.64 1078.82L2284.88 1126.06L2316.2 1094.73L2237.58 1016.11Z" fill="url(#paint94_linear_37_854)" fill-opacity="0.3"/>
<path d="M2284.91 1126.16L2237.67 1173.4L2190.44 1126.16L2159.11 1157.49L2237.73 1236.11L2316.29 1157.55L2284.91 1126.16Z" fill="url(#paint95_linear_37_854)" fill-opacity="0.3"/>
</g>
<defs>
<filter id="filter0_f_37_854" x="0.67627" y="237.618" width="1904.89" height="1082.45" filterUnits="userSpaceOnUse" color-interpolation-filters="sRGB">
<feFlood flood-opacity="0" result="BackgroundImageFix"/>
<feBlend mode="normal" in="SourceGraphic" in2="BackgroundImageFix" result="shape"/>
<feGaussianBlur stdDeviation="100" result="effect1_foregroundBlur_37_854"/>
</filter>
<linearGradient id="paint0_linear_37_854" x1="540.275" y1="39.3095" x2="434.448" y2="304.686" gradientUnits="userSpaceOnUse">
<stop stop-color="white"/>
<stop offset="1" stop-color="white" stop-opacity="0"/>
</linearGradient>
<linearGradient id="paint1_linear_37_854" x1="540.363" y1="102.125" x2="434.537" y2="367.502" gradientUnits="userSpaceOnUse">
<stop stop-color="white"/>
<stop offset="1" stop-color="white" stop-opacity="0"/>
</linearGradient>
<linearGradient id="paint2_linear_37_854" x1="667.289" y1="166.324" x2="561.463" y2="431.7" gradientUnits="userSpaceOnUse">
<stop stop-color="white"/>
<stop offset="1" stop-color="white" stop-opacity="0"/>
</linearGradient>
<linearGradient id="paint3_linear_37_854" x1="667.377" y1="229.139" x2="561.551" y2="494.516" gradientUnits="userSpaceOnUse">
<stop stop-color="white"/>
<stop offset="1" stop-color="white" stop-opacity="0"/>
</linearGradient>
<linearGradient id="paint4_linear_37_854" x1="794.304" y1="293.338" x2="688.477" y2="558.715" gradientUnits="userSpaceOnUse">
<stop stop-color="white"/>
<stop offset="1" stop-color="white" stop-opacity="0"/>
</linearGradient>
<linearGradient id="paint5_linear_37_854" x1="794.392" y1="356.154" x2="688.566" y2="621.531" gradientUnits="userSpaceOnUse">
<stop stop-color="white"/>
<stop offset="1" stop-color="white" stop-opacity="0"/>
</linearGradient>
<linearGradient id="paint6_linear_37_854" x1="921.318" y1="420.353" x2="815.491" y2="685.729" gradientUnits="userSpaceOnUse">
<stop stop-color="white"/>
<stop offset="1" stop-color="white" stop-opacity="0"/>
</linearGradient>
<linearGradient id="paint7_linear_37_854" x1="921.406" y1="483.168" x2="815.58" y2="748.545" gradientUnits="userSpaceOnUse">
<stop stop-color="white"/>
<stop offset="1" stop-color="white" stop-opacity="0"/>
</linearGradient>
<linearGradient id="paint8_linear_37_854" x1="1048.33" y1="547.367" x2="942.506" y2="812.743" gradientUnits="userSpaceOnUse">
<stop stop-color="white"/>
<stop offset="1" stop-color="white" stop-opacity="0"/>
</linearGradient>
<linearGradient id="paint9_linear_37_854" x1="1048.42" y1="610.182" x2="942.594" y2="875.559" gradientUnits="userSpaceOnUse">
<stop stop-color="white"/>
<stop offset="1" stop-color="white" stop-opacity="0"/>
</linearGradient>
<linearGradient id="paint10_linear_37_854" x1="1175.35" y1="674.381" x2="1069.52" y2="939.757" gradientUnits="userSpaceOnUse">
<stop stop-color="white"/>
<stop offset="1" stop-color="white" stop-opacity="0"/>
</linearGradient>
<linearGradient id="paint11_linear_37_854" x1="1175.43" y1="737.196" x2="1069.61" y2="1002.57" gradientUnits="userSpaceOnUse">
<stop stop-color="white"/>
<stop offset="1" stop-color="white" stop-opacity="0"/>
</linearGradient>
<linearGradient id="paint12_linear_37_854" x1="413.261" y1="166.324" x2="307.434" y2="431.7" gradientUnits="userSpaceOnUse">
<stop stop-color="white"/>
<stop offset="1" stop-color="white" stop-opacity="0"/>
</linearGradient>
<linearGradient id="paint13_linear_37_854" x1="413.349" y1="229.139" x2="307.523" y2="494.516" gradientUnits="userSpaceOnUse">
<stop stop-color="white"/>
<stop offset="1" stop-color="white" stop-opacity="0"/>
</linearGradient>
<linearGradient id="paint14_linear_37_854" x1="540.275" y1="293.338" x2="434.448" y2="558.714" gradientUnits="userSpaceOnUse">
<stop stop-color="white"/>
<stop offset="1" stop-color="white" stop-opacity="0"/>
</linearGradient>
<linearGradient id="paint15_linear_37_854" x1="540.363" y1="356.153" x2="434.537" y2="621.53" gradientUnits="userSpaceOnUse">
<stop stop-color="white"/>
<stop offset="1" stop-color="white" stop-opacity="0"/>
</linearGradient>
<linearGradient id="paint16_linear_37_854" x1="667.29" y1="420.353" x2="561.464" y2="685.729" gradientUnits="userSpaceOnUse">
<stop stop-color="white"/>
<stop offset="1" stop-color="white" stop-opacity="0"/>
</linearGradient>
<linearGradient id="paint17_linear_37_854" x1="667.378" y1="483.168" x2="561.552" y2="748.545" gradientUnits="userSpaceOnUse">
<stop stop-color="white"/>
<stop offset="1" stop-color="white" stop-opacity="0"/>
</linearGradient>
<linearGradient id="paint18_linear_37_854" x1="794.304" y1="547.367" x2="688.477" y2="812.743" gradientUnits="userSpaceOnUse">
<stop stop-color="white"/>
<stop offset="1" stop-color="white" stop-opacity="0"/>
</linearGradient>
<linearGradient id="paint19_linear_37_854" x1="794.392" y1="610.182" x2="688.566" y2="875.559" gradientUnits="userSpaceOnUse">
<stop stop-color="white"/>
<stop offset="1" stop-color="white" stop-opacity="0"/>
</linearGradient>
<linearGradient id="paint20_linear_37_854" x1="921.318" y1="674.381" x2="815.491" y2="939.757" gradientUnits="userSpaceOnUse">
<stop stop-color="white"/>
<stop offset="1" stop-color="white" stop-opacity="0"/>
</linearGradient>
<linearGradient id="paint21_linear_37_854" x1="921.406" y1="737.196" x2="815.58" y2="1002.57" gradientUnits="userSpaceOnUse">
<stop stop-color="white"/>
<stop offset="1" stop-color="white" stop-opacity="0"/>
</linearGradient>
<linearGradient id="paint22_linear_37_854" x1="1048.33" y1="801.395" x2="942.506" y2="1066.77" gradientUnits="userSpaceOnUse">
<stop stop-color="white"/>
<stop offset="1" stop-color="white" stop-opacity="0"/>
</linearGradient>
<linearGradient id="paint23_linear_37_854" x1="1048.42" y1="864.21" x2="942.594" y2="1129.59" gradientUnits="userSpaceOnUse">
<stop stop-color="white"/>
<stop offset="1" stop-color="white" stop-opacity="0"/>
</linearGradient>
<linearGradient id="paint24_linear_37_854" x1="286.246" y1="293.338" x2="180.42" y2="558.714" gradientUnits="userSpaceOnUse">
<stop stop-color="white"/>
<stop offset="1" stop-color="white" stop-opacity="0"/>
</linearGradient>
<linearGradient id="paint25_linear_37_854" x1="286.335" y1="356.153" x2="180.508" y2="621.53" gradientUnits="userSpaceOnUse">
<stop stop-color="white"/>
<stop offset="1" stop-color="white" stop-opacity="0"/>
</linearGradient>
<linearGradient id="paint26_linear_37_854" x1="413.261" y1="420.352" x2="307.434" y2="685.728" gradientUnits="userSpaceOnUse">
<stop stop-color="white"/>
<stop offset="1" stop-color="white" stop-opacity="0"/>
</linearGradient>
<linearGradient id="paint27_linear_37_854" x1="413.349" y1="483.167" x2="307.523" y2="748.544" gradientUnits="userSpaceOnUse">
<stop stop-color="white"/>
<stop offset="1" stop-color="white" stop-opacity="0"/>
</linearGradient>
<linearGradient id="paint28_linear_37_854" x1="540.276" y1="547.367" x2="434.449" y2="812.743" gradientUnits="userSpaceOnUse">
<stop stop-color="white"/>
<stop offset="1" stop-color="white" stop-opacity="0"/>
</linearGradient>
<linearGradient id="paint29_linear_37_854" x1="540.364" y1="610.182" x2="434.538" y2="875.559" gradientUnits="userSpaceOnUse">
<stop stop-color="white"/>
<stop offset="1" stop-color="white" stop-opacity="0"/>
</linearGradient>
<linearGradient id="paint30_linear_37_854" x1="667.29" y1="674.381" x2="561.464" y2="939.757" gradientUnits="userSpaceOnUse">
<stop stop-color="white"/>
<stop offset="1" stop-color="white" stop-opacity="0"/>
</linearGradient>
<linearGradient id="paint31_linear_37_854" x1="667.378" y1="737.196" x2="561.552" y2="1002.57" gradientUnits="userSpaceOnUse">
<stop stop-color="white"/>
<stop offset="1" stop-color="white" stop-opacity="0"/>
</linearGradient>
<linearGradient id="paint32_linear_37_854" x1="794.304" y1="801.395" x2="688.477" y2="1066.77" gradientUnits="userSpaceOnUse">
<stop stop-color="white"/>
<stop offset="1" stop-color="white" stop-opacity="0"/>
</linearGradient>
<linearGradient id="paint33_linear_37_854" x1="794.392" y1="864.21" x2="688.566" y2="1129.59" gradientUnits="userSpaceOnUse">
<stop stop-color="white"/>
<stop offset="1" stop-color="white" stop-opacity="0"/>
</linearGradient>
<linearGradient id="paint34_linear_37_854" x1="921.318" y1="928.409" x2="815.491" y2="1193.79" gradientUnits="userSpaceOnUse">
<stop stop-color="white"/>
<stop offset="1" stop-color="white" stop-opacity="0"/>
</linearGradient>
<linearGradient id="paint35_linear_37_854" x1="921.406" y1="991.224" x2="815.58" y2="1256.6" gradientUnits="userSpaceOnUse">
<stop stop-color="white"/>
<stop offset="1" stop-color="white" stop-opacity="0"/>
</linearGradient>
<linearGradient id="paint36_linear_37_854" x1="159.233" y1="420.352" x2="53.4064" y2="685.728" gradientUnits="userSpaceOnUse">
<stop stop-color="white"/>
<stop offset="1" stop-color="white" stop-opacity="0"/>
</linearGradient>
<linearGradient id="paint37_linear_37_854" x1="159.321" y1="483.167" x2="53.4948" y2="748.544" gradientUnits="userSpaceOnUse">
<stop stop-color="white"/>
<stop offset="1" stop-color="white" stop-opacity="0"/>
</linearGradient>
<linearGradient id="paint38_linear_37_854" x1="286.246" y1="547.366" x2="180.42" y2="812.742" gradientUnits="userSpaceOnUse">
<stop stop-color="white"/>
<stop offset="1" stop-color="white" stop-opacity="0"/>
</linearGradient>
<linearGradient id="paint39_linear_37_854" x1="286.335" y1="610.182" x2="180.508" y2="875.558" gradientUnits="userSpaceOnUse">
<stop stop-color="white"/>
<stop offset="1" stop-color="white" stop-opacity="0"/>
</linearGradient>
<linearGradient id="paint40_linear_37_854" x1="413.262" y1="674.381" x2="307.435" y2="939.757" gradientUnits="userSpaceOnUse">
<stop stop-color="white"/>
<stop offset="1" stop-color="white" stop-opacity="0"/>
</linearGradient>
<linearGradient id="paint41_linear_37_854" x1="413.35" y1="737.196" x2="307.524" y2="1002.57" gradientUnits="userSpaceOnUse">
<stop stop-color="white"/>
<stop offset="1" stop-color="white" stop-opacity="0"/>
</linearGradient>
<linearGradient id="paint42_linear_37_854" x1="540.276" y1="801.395" x2="434.449" y2="1066.77" gradientUnits="userSpaceOnUse">
<stop stop-color="white"/>
<stop offset="1" stop-color="white" stop-opacity="0"/>
</linearGradient>
<linearGradient id="paint43_linear_37_854" x1="540.364" y1="864.21" x2="434.538" y2="1129.59" gradientUnits="userSpaceOnUse">
<stop stop-color="white"/>
<stop offset="1" stop-color="white" stop-opacity="0"/>
</linearGradient>
<linearGradient id="paint44_linear_37_854" x1="667.29" y1="928.409" x2="561.464" y2="1193.79" gradientUnits="userSpaceOnUse">
<stop stop-color="white"/>
<stop offset="1" stop-color="white" stop-opacity="0"/>
</linearGradient>
<linearGradient id="paint45_linear_37_854" x1="667.378" y1="991.225" x2="561.552" y2="1256.6" gradientUnits="userSpaceOnUse">
<stop stop-color="white"/>
<stop offset="1" stop-color="white" stop-opacity="0"/>
</linearGradient>
<linearGradient id="paint46_linear_37_854" x1="794.304" y1="1055.42" x2="688.477" y2="1320.8" gradientUnits="userSpaceOnUse">
<stop stop-color="white"/>
<stop offset="1" stop-color="white" stop-opacity="0"/>
</linearGradient>
<linearGradient id="paint47_linear_37_854" x1="794.392" y1="1118.24" x2="688.566" y2="1383.61" gradientUnits="userSpaceOnUse">
<stop stop-color="white"/>
<stop offset="1" stop-color="white" stop-opacity="0"/>
</linearGradient>
<linearGradient id="paint48_linear_37_854" x1="2022.86" y1="39.3095" x2="1917.04" y2="304.686" gradientUnits="userSpaceOnUse">
<stop stop-color="white"/>
<stop offset="1" stop-color="white" stop-opacity="0"/>
</linearGradient>
<linearGradient id="paint49_linear_37_854" x1="2022.95" y1="102.125" x2="1917.13" y2="367.502" gradientUnits="userSpaceOnUse">
<stop stop-color="white"/>
<stop offset="1" stop-color="white" stop-opacity="0"/>
</linearGradient>
<linearGradient id="paint50_linear_37_854" x1="2149.88" y1="166.324" x2="2044.05" y2="431.7" gradientUnits="userSpaceOnUse">
<stop stop-color="white"/>
<stop offset="1" stop-color="white" stop-opacity="0"/>
</linearGradient>
<linearGradient id="paint51_linear_37_854" x1="2149.97" y1="229.139" x2="2044.14" y2="494.516" gradientUnits="userSpaceOnUse">
<stop stop-color="white"/>
<stop offset="1" stop-color="white" stop-opacity="0"/>
</linearGradient>
<linearGradient id="paint52_linear_37_854" x1="2276.89" y1="293.338" x2="2171.07" y2="558.715" gradientUnits="userSpaceOnUse">
<stop stop-color="white"/>
<stop offset="1" stop-color="white" stop-opacity="0"/>
</linearGradient>
<linearGradient id="paint53_linear_37_854" x1="2276.98" y1="356.154" x2="2171.15" y2="621.531" gradientUnits="userSpaceOnUse">
<stop stop-color="white"/>
<stop offset="1" stop-color="white" stop-opacity="0"/>
</linearGradient>
<linearGradient id="paint54_linear_37_854" x1="2403.91" y1="420.353" x2="2298.08" y2="685.729" gradientUnits="userSpaceOnUse">
<stop stop-color="white"/>
<stop offset="1" stop-color="white" stop-opacity="0"/>
</linearGradient>
<linearGradient id="paint55_linear_37_854" x1="2404" y1="483.168" x2="2298.17" y2="748.545" gradientUnits="userSpaceOnUse">
<stop stop-color="white"/>
<stop offset="1" stop-color="white" stop-opacity="0"/>
</linearGradient>
<linearGradient id="paint56_linear_37_854" x1="2530.92" y1="547.367" x2="2425.09" y2="812.743" gradientUnits="userSpaceOnUse">
<stop stop-color="white"/>
<stop offset="1" stop-color="white" stop-opacity="0"/>
</linearGradient>
<linearGradient id="paint57_linear_37_854" x1="2531.01" y1="610.182" x2="2425.18" y2="875.559" gradientUnits="userSpaceOnUse">
<stop stop-color="white"/>
<stop offset="1" stop-color="white" stop-opacity="0"/>
</linearGradient>
<linearGradient id="paint58_linear_37_854" x1="2657.93" y1="674.381" x2="2552.11" y2="939.757" gradientUnits="userSpaceOnUse">
<stop stop-color="white"/>
<stop offset="1" stop-color="white" stop-opacity="0"/>
</linearGradient>
<linearGradient id="paint59_linear_37_854" x1="2658.02" y1="737.196" x2="2552.2" y2="1002.57" gradientUnits="userSpaceOnUse">
<stop stop-color="white"/>
<stop offset="1" stop-color="white" stop-opacity="0"/>
</linearGradient>
<linearGradient id="paint60_linear_37_854" x1="1895.85" y1="166.324" x2="1790.02" y2="431.7" gradientUnits="userSpaceOnUse">
<stop stop-color="white"/>
<stop offset="1" stop-color="white" stop-opacity="0"/>
</linearGradient>
<linearGradient id="paint61_linear_37_854" x1="1895.94" y1="229.139" x2="1790.11" y2="494.516" gradientUnits="userSpaceOnUse">
<stop stop-color="white"/>
<stop offset="1" stop-color="white" stop-opacity="0"/>
</linearGradient>
<linearGradient id="paint62_linear_37_854" x1="2022.86" y1="293.338" x2="1917.04" y2="558.714" gradientUnits="userSpaceOnUse">
<stop stop-color="white"/>
<stop offset="1" stop-color="white" stop-opacity="0"/>
</linearGradient>
<linearGradient id="paint63_linear_37_854" x1="2022.95" y1="356.153" x2="1917.13" y2="621.53" gradientUnits="userSpaceOnUse">
<stop stop-color="white"/>
<stop offset="1" stop-color="white" stop-opacity="0"/>
</linearGradient>
<linearGradient id="paint64_linear_37_854" x1="2149.88" y1="420.353" x2="2044.05" y2="685.729" gradientUnits="userSpaceOnUse">
<stop stop-color="white"/>
<stop offset="1" stop-color="white" stop-opacity="0"/>
</linearGradient>
<linearGradient id="paint65_linear_37_854" x1="2149.97" y1="483.168" x2="2044.14" y2="748.545" gradientUnits="userSpaceOnUse">
<stop stop-color="white"/>
<stop offset="1" stop-color="white" stop-opacity="0"/>
</linearGradient>
<linearGradient id="paint66_linear_37_854" x1="2276.89" y1="547.367" x2="2171.07" y2="812.743" gradientUnits="userSpaceOnUse">
<stop stop-color="white"/>
<stop offset="1" stop-color="white" stop-opacity="0"/>
</linearGradient>
<linearGradient id="paint67_linear_37_854" x1="2276.98" y1="610.182" x2="2171.15" y2="875.559" gradientUnits="userSpaceOnUse">
<stop stop-color="white"/>
<stop offset="1" stop-color="white" stop-opacity="0"/>
</linearGradient>
<linearGradient id="paint68_linear_37_854" x1="2403.91" y1="674.381" x2="2298.08" y2="939.757" gradientUnits="userSpaceOnUse">
<stop stop-color="white"/>
<stop offset="1" stop-color="white" stop-opacity="0"/>
</linearGradient>
<linearGradient id="paint69_linear_37_854" x1="2404" y1="737.196" x2="2298.17" y2="1002.57" gradientUnits="userSpaceOnUse">
<stop stop-color="white"/>
<stop offset="1" stop-color="white" stop-opacity="0"/>
</linearGradient>
<linearGradient id="paint70_linear_37_854" x1="2530.92" y1="801.395" x2="2425.09" y2="1066.77" gradientUnits="userSpaceOnUse">
<stop stop-color="white"/>
<stop offset="1" stop-color="white" stop-opacity="0"/>
</linearGradient>
<linearGradient id="paint71_linear_37_854" x1="2531.01" y1="864.21" x2="2425.18" y2="1129.59" gradientUnits="userSpaceOnUse">
<stop stop-color="white"/>
<stop offset="1" stop-color="white" stop-opacity="0"/>
</linearGradient>
<linearGradient id="paint72_linear_37_854" x1="1768.83" y1="293.338" x2="1663.01" y2="558.714" gradientUnits="userSpaceOnUse">
<stop stop-color="white"/>
<stop offset="1" stop-color="white" stop-opacity="0"/>
</linearGradient>
<linearGradient id="paint73_linear_37_854" x1="1768.92" y1="356.153" x2="1663.1" y2="621.53" gradientUnits="userSpaceOnUse">
<stop stop-color="white"/>
<stop offset="1" stop-color="white" stop-opacity="0"/>
</linearGradient>
<linearGradient id="paint74_linear_37_854" x1="1895.85" y1="420.352" x2="1790.02" y2="685.728" gradientUnits="userSpaceOnUse">
<stop stop-color="white"/>
<stop offset="1" stop-color="white" stop-opacity="0"/>
</linearGradient>
<linearGradient id="paint75_linear_37_854" x1="1895.94" y1="483.167" x2="1790.11" y2="748.544" gradientUnits="userSpaceOnUse">
<stop stop-color="white"/>
<stop offset="1" stop-color="white" stop-opacity="0"/>
</linearGradient>
<linearGradient id="paint76_linear_37_854" x1="2022.86" y1="547.367" x2="1917.04" y2="812.743" gradientUnits="userSpaceOnUse">
<stop stop-color="white"/>
<stop offset="1" stop-color="white" stop-opacity="0"/>
</linearGradient>
<linearGradient id="paint77_linear_37_854" x1="2022.95" y1="610.182" x2="1917.13" y2="875.559" gradientUnits="userSpaceOnUse">
<stop stop-color="white"/>
<stop offset="1" stop-color="white" stop-opacity="0"/>
</linearGradient>
<linearGradient id="paint78_linear_37_854" x1="2149.88" y1="674.381" x2="2044.05" y2="939.757" gradientUnits="userSpaceOnUse">
<stop stop-color="white"/>
<stop offset="1" stop-color="white" stop-opacity="0"/>
</linearGradient>
<linearGradient id="paint79_linear_37_854" x1="2149.97" y1="737.196" x2="2044.14" y2="1002.57" gradientUnits="userSpaceOnUse">
<stop stop-color="white"/>
<stop offset="1" stop-color="white" stop-opacity="0"/>
</linearGradient>
<linearGradient id="paint80_linear_37_854" x1="2276.89" y1="801.395" x2="2171.07" y2="1066.77" gradientUnits="userSpaceOnUse">
<stop stop-color="white"/>
<stop offset="1" stop-color="white" stop-opacity="0"/>
</linearGradient>
<linearGradient id="paint81_linear_37_854" x1="2276.98" y1="864.21" x2="2171.15" y2="1129.59" gradientUnits="userSpaceOnUse">
<stop stop-color="white"/>
<stop offset="1" stop-color="white" stop-opacity="0"/>
</linearGradient>
<linearGradient id="paint82_linear_37_854" x1="2403.91" y1="928.409" x2="2298.08" y2="1193.79" gradientUnits="userSpaceOnUse">
<stop stop-color="white"/>
<stop offset="1" stop-color="white" stop-opacity="0"/>
</linearGradient>
<linearGradient id="paint83_linear_37_854" x1="2404" y1="991.224" x2="2298.17" y2="1256.6" gradientUnits="userSpaceOnUse">
<stop stop-color="white"/>
<stop offset="1" stop-color="white" stop-opacity="0"/>
</linearGradient>
<linearGradient id="paint84_linear_37_854" x1="1641.82" y1="420.352" x2="1535.99" y2="685.728" gradientUnits="userSpaceOnUse">
<stop stop-color="white"/>
<stop offset="1" stop-color="white" stop-opacity="0"/>
</linearGradient>
<linearGradient id="paint85_linear_37_854" x1="1641.91" y1="483.167" x2="1536.08" y2="748.544" gradientUnits="userSpaceOnUse">
<stop stop-color="white"/>
<stop offset="1" stop-color="white" stop-opacity="0"/>
</linearGradient>
<linearGradient id="paint86_linear_37_854" x1="1768.83" y1="547.366" x2="1663.01" y2="812.742" gradientUnits="userSpaceOnUse">
<stop stop-color="white"/>
<stop offset="1" stop-color="white" stop-opacity="0"/>
</linearGradient>
<linearGradient id="paint87_linear_37_854" x1="1768.92" y1="610.182" x2="1663.1" y2="875.558" gradientUnits="userSpaceOnUse">
<stop stop-color="white"/>
<stop offset="1" stop-color="white" stop-opacity="0"/>
</linearGradient>
<linearGradient id="paint88_linear_37_854" x1="1895.85" y1="674.381" x2="1790.02" y2="939.757" gradientUnits="userSpaceOnUse">
<stop stop-color="white"/>
<stop offset="1" stop-color="white" stop-opacity="0"/>
</linearGradient>
<linearGradient id="paint89_linear_37_854" x1="1895.94" y1="737.196" x2="1790.11" y2="1002.57" gradientUnits="userSpaceOnUse">
<stop stop-color="white"/>
<stop offset="1" stop-color="white" stop-opacity="0"/>
</linearGradient>
<linearGradient id="paint90_linear_37_854" x1="2022.86" y1="801.395" x2="1917.04" y2="1066.77" gradientUnits="userSpaceOnUse">
<stop stop-color="white"/>
<stop offset="1" stop-color="white" stop-opacity="0"/>
</linearGradient>
<linearGradient id="paint91_linear_37_854" x1="2022.95" y1="864.21" x2="1917.13" y2="1129.59" gradientUnits="userSpaceOnUse">
<stop stop-color="white"/>
<stop offset="1" stop-color="white" stop-opacity="0"/>
</linearGradient>
<linearGradient id="paint92_linear_37_854" x1="2149.88" y1="928.409" x2="2044.05" y2="1193.79" gradientUnits="userSpaceOnUse">
<stop stop-color="white"/>
<stop offset="1" stop-color="white" stop-opacity="0"/>
</linearGradient>
<linearGradient id="paint93_linear_37_854" x1="2149.97" y1="991.225" x2="2044.14" y2="1256.6" gradientUnits="userSpaceOnUse">
<stop stop-color="white"/>
<stop offset="1" stop-color="white" stop-opacity="0"/>
</linearGradient>
<linearGradient id="paint94_linear_37_854" x1="2276.89" y1="1055.42" x2="2171.07" y2="1320.8" gradientUnits="userSpaceOnUse">
<stop stop-color="white"/>
<stop offset="1" stop-color="white" stop-opacity="0"/>
</linearGradient>
<linearGradient id="paint95_linear_37_854" x1="2276.98" y1="1118.24" x2="2171.15" y2="1383.61" gradientUnits="userSpaceOnUse">
<stop stop-color="white"/>
<stop offset="1" stop-color="white" stop-opacity="0"/>
</linearGradient>
</defs>
</svg>
